# xmcd
#
# Track frame offsets: 
#        150
#        10410
#        27658
#        52354
#        63852
#        77346
#        88660
#        110192
#        125548
#        143500
#        159048
#        170173
#        181378
#        203453
#        214645
#        236135
#        253160
#        267401
#        283754
#        296980
#        320968
#        342374
#
# Disc length: 4770 seconds
#
# Revision: 0
# Processed by: cddbd v1.5.2PL0 Copyright (c) Steve Scherf et al.
# Submitted via: ExactAudioCopyFreeDBPlugin 1.0
#
DISCID=5912a016
DTITLE=The Urban Voodoo Machine - Rare Gumbo
DYEAR=2013
DGENRE=Bourbon Soaked Gypsy Blues Bop'n'Stroll
TTITLE0=Last Dance Of The Silver Wolf
TTITLE1=Getting Hot Going Down (EP Version)
TTITLE2=The Death Of Celestina Rose
TTITLE3=You Got Me (By The Balls)
TTITLE4=Corpse In My Trunk
TTITLE5=Killer Sound (EP Version)
TTITLE6=Recipe For Disaster
TTITLE7=Orphan's Lament (EP Version)
TTITLE8=Alone In The City (EP Version)
TTITLE9=Devil On A String
TTITLE10=Police Paranoia
TTITLE11=Here Comes The Thunder
TTITLE12=Emptiness (EP Version)
TTITLE13=Gawkagogo
TTITLE14=Plenty More Room
TTITLE15=We Don't Want Your Love
TTITLE16=Six Weeks On The Road
TTITLE17=The Real Criminals (EP Version)
TTITLE18=Love Song #666 (EP Version)
TTITLE19=Hells Bells
TTITLE20=Go East (BBC Live Session)
TTITLE21=High Jeopardy Thing (BBC Live Session)
EXTD=
EXTT0=
EXTT1=
EXTT2=
EXTT3=
EXTT4=
EXTT5=
EXTT6=
EXTT7=
EXTT8=
EXTT9=
EXTT10=
EXTT11=
EXTT12=
EXTT13=
EXTT14=
EXTT15=
EXTT16=
EXTT17=
EXTT18=
EXTT19=
EXTT20=
EXTT21=
PLAYORDER=
